<?xml version="1.0"?>
<svg xmlns="http://www.w3.org/2000/svg" xmlns:xlink="http://www.w3.org/1999/xlink" version="1.1" id="Capa_1" x="0px" y="0px" viewBox="0 0 368 368" style="enable-background:new 0 0 368 368;" xml:space="preserve" width="512px" height="512px" class=""><g><script xmlns=""/><script xmlns=""/><g>
	<path style="fill:#FFEA89" d="M184,8c97.2,0,176,78.8,176,176s-78.8,176-176,176S8,281.2,8,184S86.8,8,184,8z M264,152   c0-8.8-7.2-16-16-16s-16,7.2-16,16s7.2,16,16,16S264,160.8,264,152z M136,152c0-8.8-7.2-16-16-16s-16,7.2-16,16s7.2,16,16,16   S136,160.8,136,152z" data-original="#CCE4FF" class="active-path" data-old_color="#CCE4FF"/>
	<circle style="fill:#FFEA89" cx="248" cy="152" r="16" data-original="#CCE4FF" class="active-path" data-old_color="#CCE4FF"/>
	<circle style="fill:#FFEA89" cx="120" cy="152" r="16" data-original="#CCE4FF" class="active-path" data-old_color="#CCE4FF"/>
</g><g>
	<path style="fill:#FFB229" d="M184,0C82.544,0,0,82.544,0,184s82.544,184,184,184s184-82.544,184-184S285.456,0,184,0z M184,352   c-92.64,0-168-75.36-168-168S91.36,16,184,16s168,75.36,168,168S276.64,352,184,352z" data-original="#007AFF" class="" data-old_color="#007AFF"/>
	<path style="fill:#FFB229" d="M144,152c0-13.232-10.768-24-24-24s-24,10.768-24,24s10.768,24,24,24S144,165.232,144,152z M112,152   c0-4.408,3.592-8,8-8s8,3.592,8,8s-3.592,8-8,8S112,156.408,112,152z" data-original="#007AFF" class="" data-old_color="#007AFF"/>
	<path style="fill:#FFB229" d="M248,128c-13.232,0-24,10.768-24,24s10.768,24,24,24s24-10.768,24-24S261.232,128,248,128z M248,160   c-4.408,0-8-3.592-8-8s3.592-8,8-8s8,3.592,8,8S252.408,160,248,160z" data-original="#007AFF" class="" data-old_color="#007AFF"/>
	<path style="fill:#FFB229" d="M250.032,226.664C233.36,245.312,209.296,256,184,256c-25.224,0-49.304-10.696-66.048-29.344   c-2.952-3.296-8.008-3.568-11.296-0.608c-3.288,2.952-3.56,8.008-0.608,11.296C125.824,259.368,154.24,272,184,272   c29.84,0,58.256-12.64,77.968-34.664c2.944-3.296,2.664-8.344-0.632-11.296C258.032,223.096,252.976,223.368,250.032,226.664z" data-original="#007AFF" class="" data-old_color="#007AFF"/>
</g></g> </svg>
